<svg width="2048" height="512" viewBox="0 0 2048 512" fill="none" xmlns="http://www.w3.org/2000/svg">
  <defs>
    <linearGradient id="appBase" x1="40" y1="40" x2="472" y2="472" gradientUnits="userSpaceOnUse">
      <stop stop-color="#F8FDFF"/>
      <stop offset="0.52" stop-color="#DDF7F3"/>
      <stop offset="1" stop-color="#89DCCF"/>
    </linearGradient>
    <linearGradient id="inner" x1="166" y1="142" x2="346" y2="354" gradientUnits="userSpaceOnUse">
      <stop stop-color="#FFFFFF"/>
      <stop offset="1" stop-color="#C6F2EA"/>
    </linearGradient>
    <linearGradient id="teal" x1="200" y1="160" x2="316" y2="300" gradientUnits="userSpaceOnUse">
      <stop stop-color="#45D9C4"/>
      <stop offset="1" stop-color="#0F9F92"/>
    </linearGradient>
    <filter id="appShadow" x="-30" y="-16" width="572" height="598" filterUnits="userSpaceOnUse" color-interpolation-filters="sRGB">
      <feDropShadow dx="0" dy="24" stdDeviation="28" flood-color="#081E23" flood-opacity="0.16"/>
    </filter>
    <filter id="stateShadow" x="0" y="0" width="256" height="256" filterUnits="userSpaceOnUse" color-interpolation-filters="sRGB">
      <feDropShadow dx="0" dy="12" stdDeviation="14" flood-color="#102A2D" flood-opacity="0.13"/>
    </filter>
  </defs>

  <g id="app-icon-normal" filter="url(#appShadow)">
    <rect x="40" y="40" width="432" height="432" rx="112" fill="url(#appBase)"/>
    <rect x="68" y="68" width="376" height="376" rx="92" stroke="#FFFFFF" stroke-width="13" opacity="0.74"/>
    <rect x="126" y="152" width="260" height="208" rx="70" fill="url(#inner)" stroke="#1E3437" stroke-width="19"/>
    <path d="M153 191C180 159 238 145 288 157C311 162 332 173 350 188" stroke="#37C8B8" stroke-width="20" stroke-linecap="round"/>
    <circle cx="256" cy="256" r="52" fill="url(#teal)"/>
    <circle cx="276" cy="236" r="14" fill="#F6FFFE"/>
    <path d="M171 338C195 368 241 380 291 368C317 362 342 350 361 332" stroke="#1E3437" stroke-width="14" stroke-linecap="round" opacity="0.16"/>
  </g>

  <g id="status-normal" transform="translate(560 128)" filter="url(#stateShadow)">
    <rect x="18" y="22" width="124" height="116" rx="36" fill="#FFFFFF"/>
    <rect x="18" y="22" width="124" height="116" rx="36" stroke="#203235" stroke-width="12"/>
    <circle cx="80" cy="80" r="25" fill="#24B9A8"/>
    <circle cx="88" cy="70" r="7" fill="#EFFFFC"/>
  </g>

  <g id="status-scanning" transform="translate(760 128)" filter="url(#stateShadow)">
    <rect x="18" y="22" width="124" height="116" rx="36" fill="#FFFFFF"/>
    <rect x="18" y="22" width="124" height="116" rx="36" stroke="#203235" stroke-width="12"/>
    <path d="M38 48C54 32 84 30 104 42" stroke="#2A9DFF" stroke-width="12" stroke-linecap="round"/>
    <path d="M122 112C106 128 76 130 56 118" stroke="#2A9DFF" stroke-width="12" stroke-linecap="round"/>
    <circle cx="80" cy="80" r="23" fill="#2A9DFF"/>
    <circle cx="88" cy="70" r="7" fill="#F2FAFF"/>
  </g>

  <g id="status-minor" transform="translate(960 128)" filter="url(#stateShadow)">
    <rect x="18" y="22" width="124" height="116" rx="36" fill="#FFFFFF"/>
    <rect x="18" y="22" width="124" height="116" rx="36" stroke="#203235" stroke-width="12"/>
    <circle cx="80" cy="80" r="25" fill="#24B9A8"/>
    <circle cx="119" cy="42" r="18" fill="#FFC247" stroke="#FFFFFF" stroke-width="7"/>
    <circle cx="119" cy="42" r="5" fill="#7A4B00"/>
  </g>

  <g id="status-warning" transform="translate(1160 128)" filter="url(#stateShadow)">
    <rect x="18" y="22" width="124" height="116" rx="36" fill="#FFF8EB"/>
    <rect x="18" y="22" width="124" height="116" rx="36" stroke="#203235" stroke-width="12"/>
    <path d="M39 126C48 102 58 88 80 88C102 88 112 102 121 126" stroke="#FF9D2F" stroke-width="12" stroke-linecap="round"/>
    <circle cx="80" cy="73" r="23" fill="#FF9D2F"/>
    <path d="M119 31V53" stroke="#8F4800" stroke-width="10" stroke-linecap="round"/>
    <circle cx="119" cy="70" r="5.5" fill="#8F4800"/>
  </g>

  <g id="status-critical" transform="translate(1360 128)" filter="url(#stateShadow)">
    <rect x="18" y="22" width="124" height="116" rx="36" fill="#FFF3F1"/>
    <rect x="18" y="22" width="124" height="116" rx="36" stroke="#203235" stroke-width="12"/>
    <path d="M35 44C50 28 111 28 125 44" stroke="#FF5C56" stroke-width="12" stroke-linecap="round"/>
    <path d="M35 116C50 132 111 132 125 116" stroke="#FF5C56" stroke-width="12" stroke-linecap="round"/>
    <circle cx="80" cy="80" r="25" fill="#FF5C56"/>
    <rect x="114" y="31" width="12" height="45" rx="6" fill="#8C1713"/>
    <circle cx="120" cy="91" r="6" fill="#8C1713"/>
  </g>

  <g id="status-paused" transform="translate(1560 128)" filter="url(#stateShadow)">
    <rect x="18" y="22" width="124" height="116" rx="36" fill="#F7F8F8"/>
    <rect x="18" y="22" width="124" height="116" rx="36" stroke="#6F7C80" stroke-width="12"/>
    <rect x="64" y="57" width="13" height="46" rx="6.5" fill="#6F7C80"/>
    <rect x="85" y="57" width="13" height="46" rx="6.5" fill="#6F7C80"/>
  </g>

  <g id="status-offline" transform="translate(1760 128)" filter="url(#stateShadow)">
    <path d="M24 72V58C24 38.1 40.1 22 60 22H100C119.9 22 136 38.1 136 58V84" stroke="#8D989B" stroke-width="12" stroke-linecap="round"/>
    <path d="M136 101V102C136 121.9 119.9 138 100 138H60C40.1 138 24 121.9 24 102V92" stroke="#8D989B" stroke-width="12" stroke-linecap="round"/>
    <path d="M42 122L118 38" stroke="#8D989B" stroke-width="12" stroke-linecap="round"/>
    <circle cx="80" cy="80" r="22" fill="#8D989B"/>
  </g>

  <g id="menubar-normal" transform="translate(568 342)" color="#203235">
    <rect x="9" y="12" width="46" height="40" rx="16" stroke="currentColor" stroke-width="6" fill="none"/>
    <circle cx="32" cy="32" r="9" fill="currentColor"/>
  </g>
  <g id="menubar-scanning" transform="translate(768 342)" color="#203235">
    <rect x="9" y="12" width="46" height="40" rx="16" stroke="currentColor" stroke-width="6" fill="none"/>
    <path d="M17 21C24 15 39 15 47 21" stroke="currentColor" stroke-width="6" stroke-linecap="round"/>
    <circle cx="32" cy="32" r="8" fill="currentColor"/>
  </g>
  <g id="menubar-warning" transform="translate(968 342)" color="#203235">
    <rect x="9" y="12" width="46" height="40" rx="16" stroke="currentColor" stroke-width="6" fill="none"/>
    <circle cx="32" cy="32" r="8" fill="currentColor"/>
    <path d="M50 10V23" stroke="currentColor" stroke-width="6" stroke-linecap="round"/>
    <circle cx="50" cy="32" r="3" fill="currentColor"/>
  </g>
  <g id="menubar-paused" transform="translate(1168 342)" color="#203235">
    <rect x="9" y="12" width="46" height="40" rx="16" stroke="currentColor" stroke-width="6" fill="none"/>
    <rect x="25" y="23" width="5" height="18" rx="2.5" fill="currentColor"/>
    <rect x="34" y="23" width="5" height="18" rx="2.5" fill="currentColor"/>
  </g>
  <g id="menubar-offline" transform="translate(1368 342)" color="#203235">
    <path d="M10 29V27C10 18.7 16.7 12 25 12H39C47.3 12 54 18.7 54 27V35" stroke="currentColor" stroke-width="6" stroke-linecap="round" fill="none"/>
    <path d="M54 42C52.7 48.8 46.5 52 39 52H25C16.7 52 10 45.3 10 37" stroke="currentColor" stroke-width="6" stroke-linecap="round" fill="none"/>
    <path d="M17 50L48 14" stroke="currentColor" stroke-width="6" stroke-linecap="round"/>
    <circle cx="32" cy="32" r="8" fill="currentColor"/>
  </g>
</svg>
